<?xml version="1.0" encoding="UTF-8"?>
<svg xmlns="http://www.w3.org/2000/svg" xmlns:xlink="http://www.w3.org/1999/xlink" viewBox="0 0 243.99 47.81">
  <defs>
    <style>
      .cls-1, .cls-2 {
        fill: url(#New_Pattern_Swatch_1);
      }

      .cls-3 {
        fill: #fff;
      }

      .cls-4, .cls-5 {
        fill: #87d7f4;
      }

      .cls-6 {
        fill: none;
      }

      .cls-7 {
        fill: url(#linear-gradient-4);
      }

      .cls-8 {
        fill: url(#linear-gradient-3);
      }

      .cls-9 {
        fill: #231f20;
      }

      .cls-10 {
        isolation: isolate;
      }

      .cls-11 {
        fill: url(#linear-gradient);
      }

      .cls-11, .cls-2, .cls-5, .cls-12 {
        opacity: .25;
      }

      .cls-11, .cls-2, .cls-12 {
        mix-blend-mode: multiply;
      }

      .cls-13 {
        fill: #b2af93;
      }

      .cls-14 {
        fill: #9e9a80;
      }

      .cls-15 {
        fill: #bfbb9f;
      }

      .cls-12 {
        fill: url(#linear-gradient-2);
      }
    </style>
    <pattern id="New_Pattern_Swatch_1" data-name="New Pattern Swatch 1" x="0" y="0" width="170.41" height="60" patternTransform="translate(355.98 -1626)" patternUnits="userSpaceOnUse" viewBox="0 0 170.41 60">
      <g>
        <rect class="cls-6" width="170.41" height="60"/>
        <g>
          <rect class="cls-14" x="170.39" y="56" width="29.34" height="4"/>
          <rect class="cls-13" x="141.5" y="56" width="29.34" height="4"/>
          <rect class="cls-14" x="85.69" y="56" width="29.34" height="4"/>
          <rect class="cls-15" x="113.18" y="56" width="29.34" height="4"/>
          <rect class="cls-13" x="56.8" y="56" width="29.34" height="4"/>
        </g>
        <g>
          <rect class="cls-14" x="-.03" y="56" width="29.34" height="4"/>
          <rect class="cls-15" x="27.47" y="56" width="29.34" height="4"/>
          <rect class="cls-13" x="-28.91" y="56" width="29.34" height="4"/>
        </g>
        <g>
          <rect class="cls-14" x="113.58" y="52" width="29.34" height="4"/>
          <rect class="cls-15" x="141.08" y="52" width="29.34" height="4"/>
          <rect class="cls-13" x="84.7" y="52" width="29.34" height="4"/>
          <rect class="cls-14" x="28.88" y="52" width="29.34" height="4"/>
          <rect class="cls-15" x="56.38" y="52" width="29.34" height="4"/>
          <rect class="cls-13" x="0" y="52" width="29.34" height="4"/>
        </g>
        <g>
          <rect class="cls-14" x="142.49" y="48" width="29.34" height="4"/>
          <rect class="cls-15" x="169.99" y="48" width="29.34" height="4"/>
          <rect class="cls-13" x="113.61" y="48" width="29.34" height="4"/>
        </g>
        <g>
          <rect class="cls-14" x="56.78" y="48" width="29.34" height="4"/>
          <rect class="cls-15" x="84.27" y="48" width="29.34" height="4"/>
          <rect class="cls-13" x="27.89" y="48" width="29.34" height="4"/>
          <rect class="cls-14" x="-27.92" y="48" width="29.34" height="4"/>
          <rect class="cls-15" x="-.43" y="48" width="29.34" height="4"/>
        </g>
        <g>
          <rect class="cls-14" x="170.39" y="44" width="29.34" height="4"/>
          <rect class="cls-13" x="141.5" y="44" width="29.34" height="4"/>
          <rect class="cls-14" x="85.69" y="44" width="29.34" height="4"/>
          <rect class="cls-15" x="113.18" y="44" width="29.34" height="4"/>
          <rect class="cls-13" x="56.8" y="44" width="29.34" height="4"/>
        </g>
        <g>
          <rect class="cls-14" x="-.03" y="44" width="29.34" height="4"/>
          <rect class="cls-15" x="27.47" y="44" width="29.34" height="4"/>
          <rect class="cls-13" x="-28.91" y="44" width="29.34" height="4"/>
        </g>
        <g>
          <rect class="cls-14" x="113.58" y="40" width="29.34" height="4"/>
          <rect class="cls-15" x="141.08" y="40" width="29.34" height="4"/>
          <rect class="cls-13" x="84.7" y="40" width="29.34" height="4"/>
          <rect class="cls-14" x="28.88" y="40" width="29.34" height="4"/>
          <rect class="cls-15" x="56.38" y="40" width="29.34" height="4"/>
          <rect class="cls-13" x="0" y="40" width="29.34" height="4"/>
        </g>
        <g>
          <rect class="cls-14" x="142.49" y="36" width="29.34" height="4"/>
          <rect class="cls-15" x="169.99" y="36" width="29.34" height="4"/>
          <rect class="cls-13" x="113.61" y="36" width="29.34" height="4"/>
        </g>
        <g>
          <rect class="cls-14" x="56.78" y="36" width="29.34" height="4"/>
          <rect class="cls-15" x="84.27" y="36" width="29.34" height="4"/>
          <rect class="cls-13" x="27.89" y="36" width="29.34" height="4"/>
          <rect class="cls-14" x="-27.92" y="36" width="29.34" height="4"/>
          <rect class="cls-15" x="-.43" y="36" width="29.34" height="4"/>
        </g>
        <g>
          <rect class="cls-14" x="170.39" y="32" width="29.34" height="4"/>
          <rect class="cls-13" x="141.5" y="32" width="29.34" height="4"/>
          <rect class="cls-14" x="85.69" y="32" width="29.34" height="4"/>
          <rect class="cls-15" x="113.18" y="32" width="29.34" height="4"/>
          <rect class="cls-13" x="56.8" y="32" width="29.34" height="4"/>
        </g>
        <g>
          <rect class="cls-14" x="-.03" y="32" width="29.34" height="4"/>
          <rect class="cls-15" x="27.47" y="32" width="29.34" height="4"/>
          <rect class="cls-13" x="-28.91" y="32" width="29.34" height="4"/>
        </g>
        <g>
          <rect class="cls-14" x="113.58" y="28" width="29.34" height="4"/>
          <rect class="cls-15" x="141.08" y="28" width="29.34" height="4"/>
          <rect class="cls-13" x="84.7" y="28" width="29.34" height="4"/>
          <rect class="cls-14" x="28.88" y="28" width="29.34" height="4"/>
          <rect class="cls-15" x="56.38" y="28" width="29.34" height="4"/>
          <rect class="cls-13" x="0" y="28" width="29.34" height="4"/>
        </g>
        <g>
          <rect class="cls-14" x="142.49" y="24" width="29.34" height="4"/>
          <rect class="cls-15" x="169.99" y="24" width="29.34" height="4"/>
          <rect class="cls-13" x="113.61" y="24" width="29.34" height="4"/>
        </g>
        <g>
          <rect class="cls-14" x="56.78" y="24" width="29.34" height="4"/>
          <rect class="cls-15" x="84.27" y="24" width="29.34" height="4"/>
          <rect class="cls-13" x="27.89" y="24" width="29.34" height="4"/>
          <rect class="cls-14" x="-27.92" y="24" width="29.34" height="4"/>
          <rect class="cls-15" x="-.43" y="24" width="29.34" height="4"/>
        </g>
        <g>
          <rect class="cls-14" x="170.39" y="20" width="29.34" height="4"/>
          <rect class="cls-13" x="141.5" y="20" width="29.34" height="4"/>
          <rect class="cls-14" x="85.69" y="20" width="29.34" height="4"/>
          <rect class="cls-15" x="113.18" y="20" width="29.34" height="4"/>
          <rect class="cls-13" x="56.8" y="20" width="29.34" height="4"/>
        </g>
        <g>
          <rect class="cls-14" x="-.03" y="20" width="29.34" height="4"/>
          <rect class="cls-15" x="27.47" y="20" width="29.34" height="4"/>
          <rect class="cls-13" x="-28.91" y="20" width="29.34" height="4"/>
        </g>
        <g>
          <rect class="cls-14" x="113.58" y="16" width="29.34" height="4"/>
          <rect class="cls-15" x="141.08" y="16" width="29.34" height="4"/>
          <rect class="cls-13" x="84.7" y="16" width="29.34" height="4"/>
          <rect class="cls-14" x="28.88" y="16" width="29.34" height="4"/>
          <rect class="cls-15" x="56.38" y="16" width="29.34" height="4"/>
          <rect class="cls-13" x="0" y="16" width="29.34" height="4"/>
        </g>
        <g>
          <rect class="cls-14" x="142.49" y="12" width="29.34" height="4"/>
          <rect class="cls-15" x="169.99" y="12" width="29.34" height="4"/>
          <rect class="cls-13" x="113.61" y="12" width="29.34" height="4"/>
        </g>
        <g>
          <rect class="cls-14" x="56.78" y="12" width="29.34" height="4"/>
          <rect class="cls-15" x="84.27" y="12" width="29.34" height="4"/>
          <rect class="cls-13" x="27.89" y="12" width="29.34" height="4"/>
          <rect class="cls-14" x="-27.92" y="12" width="29.34" height="4"/>
          <rect class="cls-15" x="-.43" y="12" width="29.34" height="4"/>
        </g>
        <g>
          <rect class="cls-14" x="170.39" y="8" width="29.34" height="4"/>
          <rect class="cls-13" x="141.5" y="8" width="29.34" height="4"/>
          <rect class="cls-14" x="85.69" y="8" width="29.34" height="4"/>
          <rect class="cls-15" x="113.18" y="8" width="29.34" height="4"/>
          <rect class="cls-13" x="56.8" y="8" width="29.34" height="4"/>
        </g>
        <g>
          <rect class="cls-14" x="-.03" y="8" width="29.34" height="4"/>
          <rect class="cls-15" x="27.47" y="8" width="29.34" height="4"/>
          <rect class="cls-13" x="-28.91" y="8" width="29.34" height="4"/>
        </g>
        <g>
          <rect class="cls-14" x="113.58" y="4" width="29.34" height="4"/>
          <rect class="cls-15" x="141.08" y="4" width="29.34" height="4"/>
          <rect class="cls-13" x="84.7" y="4" width="29.34" height="4"/>
          <rect class="cls-14" x="28.88" y="4" width="29.34" height="4"/>
          <rect class="cls-15" x="56.38" y="4" width="29.34" height="4"/>
          <rect class="cls-13" x="0" y="4" width="29.34" height="4"/>
        </g>
        <g>
          <rect class="cls-14" x="142.49" width="29.34" height="4"/>
          <rect class="cls-15" x="169.99" width="29.34" height="4"/>
          <rect class="cls-13" x="113.61" width="29.34" height="4"/>
        </g>
        <g>
          <rect class="cls-14" x="56.78" width="29.34" height="4"/>
          <rect class="cls-15" x="84.27" width="29.34" height="4"/>
          <rect class="cls-13" x="27.89" width="29.34" height="4"/>
          <rect class="cls-14" x="-27.92" width="29.34" height="4"/>
          <rect class="cls-15" x="-.43" width="29.34" height="4"/>
        </g>
      </g>
    </pattern>
    <linearGradient id="linear-gradient" x1="72.01" y1="8.52" x2="72.01" y2="6.12" gradientUnits="userSpaceOnUse">
      <stop offset="0" stop-color="#fff"/>
      <stop offset="1" stop-color="#000"/>
    </linearGradient>
    <linearGradient id="linear-gradient-2" x1="1749.81" y1="-694.64" x2="1749.81" y2="-700.34" gradientTransform="translate(-1677.19 732.48)" xlink:href="#linear-gradient"/>
    <linearGradient id="linear-gradient-3" x1="66.33" y1="9.24" x2="66.33" y2="45.98" gradientUnits="userSpaceOnUse">
      <stop offset=".07" stop-color="#fff"/>
      <stop offset=".07" stop-color="#eef8fc"/>
      <stop offset=".08" stop-color="#c5e8f7"/>
      <stop offset=".08" stop-color="#a0d9f2"/>
      <stop offset=".09" stop-color="#7fcced"/>
      <stop offset=".1" stop-color="#64c2ea"/>
      <stop offset=".11" stop-color="#4eb9e7"/>
      <stop offset=".13" stop-color="#3db3e4"/>
      <stop offset=".14" stop-color="#31aee3"/>
      <stop offset=".17" stop-color="#2aabe2"/>
      <stop offset=".23" stop-color="#29abe2"/>
      <stop offset=".71" stop-color="#29abe2"/>
      <stop offset=".84" stop-color="#0071bc"/>
      <stop offset="1" stop-color="#000"/>
    </linearGradient>
    <linearGradient id="linear-gradient-4" x1="14.21" y1="9.03" x2="6.78" y2="36.67" gradientUnits="userSpaceOnUse">
      <stop offset=".07" stop-color="#fff"/>
      <stop offset=".08" stop-color="#eef8fc"/>
      <stop offset=".11" stop-color="#c5e8f7"/>
      <stop offset=".14" stop-color="#a0d9f2"/>
      <stop offset=".17" stop-color="#7fcced"/>
      <stop offset=".21" stop-color="#64c2ea"/>
      <stop offset=".26" stop-color="#4eb9e7"/>
      <stop offset=".31" stop-color="#3db3e4"/>
      <stop offset=".37" stop-color="#31aee3"/>
      <stop offset=".46" stop-color="#2aabe2"/>
      <stop offset=".71" stop-color="#29abe2"/>
      <stop offset=".84" stop-color="#29abe2"/>
      <stop offset="1" stop-color="#0071bc"/>
    </linearGradient>
  </defs>
  <g class="cls-10">
    <g id="Layer_2" data-name="Layer 2">
      <g id="Layer_1-2" data-name="Layer 1">
        <g>
          <path class="cls-1" d="M20.29,21.34h104.83c0,11.85-9.62,21.47-21.47,21.47h-61.9c-11.85,0-21.47-9.62-21.47-21.47h0Z"/>
          <path class="cls-13" d="M47.02,11.9h51.38v9.44h-50.34c-.57,0-1.04-.47-1.04-1.04v-8.4h0Z"/>
          <rect class="cls-9" x="41.59" y="24.95" width="5.14" height="6.06" rx="2.57" ry="2.57"/>
          <rect class="cls-9" x="34.81" y="24.95" width="5.14" height="6.06" rx="2.57" ry="2.57"/>
          <rect class="cls-9" x="49.97" y="24.95" width="5.14" height="6.06" rx="2.57" ry="2.57"/>
          <rect class="cls-9" x="58.34" y="24.95" width="5.14" height="6.06" rx="2.57" ry="2.57"/>
          <rect class="cls-9" x="66.72" y="24.95" width="5.14" height="6.06" rx="2.57" ry="2.57"/>
          <rect class="cls-9" x="75.1" y="24.95" width="5.14" height="6.06" rx="2.57" ry="2.57"/>
          <rect class="cls-9" x="83.47" y="24.95" width="5.14" height="6.06" rx="2.57" ry="2.57"/>
          <rect class="cls-9" x="91.85" y="24.95" width="5.14" height="6.06" rx="2.57" ry="2.57"/>
          <rect class="cls-9" x="49.97" y="14.09" width="5.14" height="6.06" rx="2.57" ry="2.57"/>
          <rect class="cls-9" x="58.34" y="14.09" width="5.14" height="6.06" rx="2.57" ry="2.57"/>
          <rect class="cls-9" x="66.72" y="14.09" width="5.14" height="6.06" rx="2.57" ry="2.57"/>
          <rect class="cls-9" x="75.1" y="14.09" width="5.14" height="6.06" rx="2.57" ry="2.57"/>
          <rect class="cls-9" x="83.47" y="14.09" width="5.14" height="6.06" rx="2.57" ry="2.57"/>
          <rect class="cls-9" x="91.85" y="14.09" width="5.14" height="6.06" rx="2.57" ry="2.57"/>
          <rect class="cls-9" x="100.22" y="24.95" width="5.14" height="6.06" rx="2.57" ry="2.57"/>
          <rect class="cls-9" x="106.6" y="24.95" width="5.14" height="6.06" rx="2.57" ry="2.57"/>
          <rect class="cls-9" x="118.75" y="24.87" width="3.62" height="6.06" rx="1.81" ry="1.81"/>
          <rect class="cls-9" x="112.98" y="24.87" width="4.52" height="6.06" rx="2.26" ry="2.26"/>
          <rect class="cls-9" x="23.87" y="24.87" width="3.62" height="6.06" rx="1.81" ry="1.81" transform="translate(51.35 55.8) rotate(-180)"/>
          <rect class="cls-9" x="28.63" y="24.87" width="4.52" height="6.06" rx="2.26" ry="2.26" transform="translate(61.79 55.8) rotate(180)"/>
          <g>
            <circle class="cls-14" cx="36.76" cy="2.46" r="2.46"/>
            <circle class="cls-14" cx="106.52" cy="2.46" r="2.46"/>
            <rect class="cls-14" x="36.76" y="2.9" width="69.75" height="2.02"/>
            <g>
              <g>
                <path class="cls-13" d="M39.64,9.5h3.41v3.83c0,.94-.76,1.7-1.7,1.7h0c-.94,0-1.7-.76-1.7-1.7v-3.83h0Z"/>
                <path class="cls-14" d="M100.98,9.5h3.41v3.83c0,.94-.76,1.7-1.7,1.7h0c-.94,0-1.7-.76-1.7-1.7v-3.83h0Z"/>
                <path class="cls-13" d="M97.57,9.5h3.41v3.83c0,.94-.76,1.7-1.7,1.7h0c-.94,0-1.7-.76-1.7-1.7v-3.83h0Z"/>
                <path class="cls-13" d="M94.16,9.5h3.41v3.83c0,.94-.76,1.7-1.7,1.7h0c-.94,0-1.7-.76-1.7-1.7v-3.83h0Z"/>
                <path class="cls-14" d="M90.76,9.5h3.41v3.83c0,.94-.76,1.7-1.7,1.7h0c-.94,0-1.7-.76-1.7-1.7v-3.83h0Z"/>
                <path class="cls-13" d="M87.35,9.5h3.41v3.83c0,.94-.76,1.7-1.7,1.7h0c-.94,0-1.7-.76-1.7-1.7v-3.83h0Z"/>
                <path class="cls-14" d="M83.94,9.5h3.41v3.83c0,.94-.76,1.7-1.7,1.7h0c-.94,0-1.7-.76-1.7-1.7v-3.83h0Z"/>
                <path class="cls-15" d="M80.53,9.5h3.41v3.83c0,.94-.76,1.7-1.7,1.7h0c-.94,0-1.7-.76-1.7-1.7v-3.83h0Z"/>
                <path class="cls-13" d="M77.13,9.5h3.41v3.83c0,.94-.76,1.7-1.7,1.7h0c-.94,0-1.7-.76-1.7-1.7v-3.83h0Z"/>
                <path class="cls-15" d="M73.72,9.5h3.41v3.83c0,.94-.76,1.7-1.7,1.7h0c-.94,0-1.7-.76-1.7-1.7v-3.83h0Z"/>
                <path class="cls-13" d="M70.31,9.5h3.41v3.83c0,.94-.76,1.7-1.7,1.7h0c-.94,0-1.7-.76-1.7-1.7v-3.83h0Z"/>
                <path class="cls-13" d="M66.9,9.5h3.41v3.83c0,.94-.76,1.7-1.7,1.7h0c-.94,0-1.7-.76-1.7-1.7v-3.83h0Z"/>
                <path class="cls-14" d="M63.49,9.5h3.41v3.83c0,.94-.76,1.7-1.7,1.7h0c-.94,0-1.7-.76-1.7-1.7v-3.83h0Z"/>
                <path class="cls-14" d="M60.09,9.5h3.41v3.83c0,.94-.76,1.7-1.7,1.7h0c-.94,0-1.7-.76-1.7-1.7v-3.83h0Z"/>
                <path class="cls-13" d="M56.68,9.5h3.41v3.83c0,.94-.76,1.7-1.7,1.7h0c-.94,0-1.7-.76-1.7-1.7v-3.83h0Z"/>
                <path class="cls-14" d="M53.27,9.5h3.41v3.83c0,.94-.76,1.7-1.7,1.7h0c-.94,0-1.7-.76-1.7-1.7v-3.83h0Z"/>
                <path class="cls-13" d="M49.86,9.5h3.41v3.83c0,.94-.76,1.7-1.7,1.7h0c-.94,0-1.7-.76-1.7-1.7v-3.83h0Z"/>
                <path class="cls-15" d="M46.45,9.5h3.41v3.83c0,.94-.76,1.7-1.7,1.7h0c-.94,0-1.7-.76-1.7-1.7v-3.83h0Z"/>
                <path class="cls-14" d="M43.05,9.5h3.41v3.83c0,.94-.76,1.7-1.7,1.7h0c-.94,0-1.7-.76-1.7-1.7v-3.83h0Z"/>
              </g>
              <g>
                <path class="cls-13" d="M100.98,6.74h0c.94,0,1.7.76,1.7,1.7v3.83h-3.41v-3.83c0-.94.76-1.7,1.7-1.7Z" transform="translate(201.96 19.01) rotate(180)"/>
                <path class="cls-14" d="M41.4,6.74h0c.94,0,1.7.76,1.7,1.7v3.83h-3.41v-3.83c0-.94.76-1.7,1.7-1.7Z" transform="translate(82.79 19.01) rotate(180)"/>
                <path class="cls-13" d="M43.05,6.74h0c.94,0,1.7.76,1.7,1.7v3.83h-3.41v-3.83c0-.94.76-1.7,1.7-1.7Z" transform="translate(86.09 19.01) rotate(-180)"/>
                <path class="cls-13" d="M46.45,6.74h0c.94,0,1.7.76,1.7,1.7v3.83h-3.41v-3.83c0-.94.76-1.7,1.7-1.7Z" transform="translate(92.91 19.01) rotate(180)"/>
                <path class="cls-14" d="M49.86,6.74h0c.94,0,1.7.76,1.7,1.7v3.83h-3.41v-3.83c0-.94.76-1.7,1.7-1.7Z" transform="translate(99.73 19.01) rotate(-180)"/>
                <path class="cls-13" d="M53.27,6.74h0c.94,0,1.7.76,1.7,1.7v3.83h-3.41v-3.83c0-.94.76-1.7,1.7-1.7Z" transform="translate(106.54 19.01) rotate(-180)"/>
                <path class="cls-14" d="M56.68,6.74h0c.94,0,1.7.76,1.7,1.7v3.83h-3.41v-3.83c0-.94.76-1.7,1.7-1.7Z" transform="translate(113.36 19.01) rotate(180)"/>
                <path class="cls-15" d="M60.09,6.74h0c.94,0,1.7.76,1.7,1.7v3.83h-3.41v-3.83c0-.94.76-1.7,1.7-1.7Z" transform="translate(120.17 19.01) rotate(180)"/>
                <path class="cls-13" d="M63.49,6.74h0c.94,0,1.7.76,1.7,1.7v3.83h-3.41v-3.83c0-.94.76-1.7,1.7-1.7Z" transform="translate(126.99 19.01) rotate(-180)"/>
                <path class="cls-15" d="M66.9,6.74h0c.94,0,1.7.76,1.7,1.7v3.83h-3.41v-3.83c0-.94.76-1.7,1.7-1.7Z" transform="translate(133.8 19.01) rotate(180)"/>
                <path class="cls-13" d="M70.31,6.74h0c.94,0,1.7.76,1.7,1.7v3.83h-3.41v-3.83c0-.94.76-1.7,1.7-1.7Z" transform="translate(140.62 19.01) rotate(180)"/>
                <path class="cls-13" d="M73.72,6.74h0c.94,0,1.7.76,1.7,1.7v3.83h-3.41v-3.83c0-.94.76-1.7,1.7-1.7Z" transform="translate(147.44 19.01) rotate(180)"/>
                <path class="cls-14" d="M77.13,6.74h0c.94,0,1.7.76,1.7,1.7v3.83h-3.41v-3.83c0-.94.76-1.7,1.7-1.7Z" transform="translate(154.25 19.01) rotate(180)"/>
                <path class="cls-14" d="M80.53,6.74h0c.94,0,1.7.76,1.7,1.7v3.83h-3.41v-3.83c0-.94.76-1.7,1.7-1.7Z" transform="translate(161.07 19.01) rotate(180)"/>
                <path class="cls-13" d="M83.94,6.74h0c.94,0,1.7.76,1.7,1.7v3.83h-3.41v-3.83c0-.94.76-1.7,1.7-1.7Z" transform="translate(167.88 19.01) rotate(180)"/>
                <path class="cls-14" d="M87.35,6.74h0c.94,0,1.7.76,1.7,1.7v3.83h-3.41v-3.83c0-.94.76-1.7,1.7-1.7Z" transform="translate(174.7 19.01) rotate(180)"/>
                <path class="cls-13" d="M90.76,6.74h0c.94,0,1.7.76,1.7,1.7v3.83h-3.41v-3.83c0-.94.76-1.7,1.7-1.7Z" transform="translate(181.51 19.01) rotate(-180)"/>
                <path class="cls-15" d="M94.16,6.74h0c.94,0,1.7.76,1.7,1.7v3.83h-3.41v-3.83c0-.94.76-1.7,1.7-1.7Z" transform="translate(188.33 19.01) rotate(-180)"/>
                <path class="cls-14" d="M97.57,6.74h0c.94,0,1.7.76,1.7,1.7v3.83h-3.41v-3.83c0-.94.76-1.7,1.7-1.7Z" transform="translate(195.14 19.01) rotate(180)"/>
              </g>
              <g>
                <path class="cls-13" d="M39.64,4.82h3.41v3.83c0,.94-.76,1.7-1.7,1.7h0c-.94,0-1.7-.76-1.7-1.7v-3.83h0Z"/>
                <path class="cls-14" d="M100.98,4.82h3.41v3.83c0,.94-.76,1.7-1.7,1.7h0c-.94,0-1.7-.76-1.7-1.7v-3.83h0Z"/>
                <path class="cls-13" d="M97.57,4.82h3.41v3.83c0,.94-.76,1.7-1.7,1.7h0c-.94,0-1.7-.76-1.7-1.7v-3.83h0Z"/>
                <path class="cls-13" d="M94.16,4.82h3.41v3.83c0,.94-.76,1.7-1.7,1.7h0c-.94,0-1.7-.76-1.7-1.7v-3.83h0Z"/>
                <path class="cls-14" d="M90.76,4.82h3.41v3.83c0,.94-.76,1.7-1.7,1.7h0c-.94,0-1.7-.76-1.7-1.7v-3.83h0Z"/>
                <path class="cls-13" d="M87.35,4.82h3.41v3.83c0,.94-.76,1.7-1.7,1.7h0c-.94,0-1.7-.76-1.7-1.7v-3.83h0Z"/>
                <path class="cls-14" d="M83.94,4.82h3.41v3.83c0,.94-.76,1.7-1.7,1.7h0c-.94,0-1.7-.76-1.7-1.7v-3.83h0Z"/>
                <path class="cls-15" d="M80.53,4.82h3.41v3.83c0,.94-.76,1.7-1.7,1.7h0c-.94,0-1.7-.76-1.7-1.7v-3.83h0Z"/>
                <path class="cls-13" d="M77.13,4.82h3.41v3.83c0,.94-.76,1.7-1.7,1.7h0c-.94,0-1.7-.76-1.7-1.7v-3.83h0Z"/>
                <path class="cls-15" d="M73.72,4.82h3.41v3.83c0,.94-.76,1.7-1.7,1.7h0c-.94,0-1.7-.76-1.7-1.7v-3.83h0Z"/>
                <path class="cls-13" d="M70.31,4.82h3.41v3.83c0,.94-.76,1.7-1.7,1.7h0c-.94,0-1.7-.76-1.7-1.7v-3.83h0Z"/>
                <path class="cls-13" d="M66.9,4.82h3.41v3.83c0,.94-.76,1.7-1.7,1.7h0c-.94,0-1.7-.76-1.7-1.7v-3.83h0Z"/>
                <path class="cls-14" d="M63.49,4.82h3.41v3.83c0,.94-.76,1.7-1.7,1.7h0c-.94,0-1.7-.76-1.7-1.7v-3.83h0Z"/>
                <path class="cls-14" d="M60.09,4.82h3.41v3.83c0,.94-.76,1.7-1.7,1.7h0c-.94,0-1.7-.76-1.7-1.7v-3.83h0Z"/>
                <path class="cls-13" d="M56.68,4.82h3.41v3.83c0,.94-.76,1.7-1.7,1.7h0c-.94,0-1.7-.76-1.7-1.7v-3.83h0Z"/>
                <path class="cls-14" d="M53.27,4.82h3.41v3.83c0,.94-.76,1.7-1.7,1.7h0c-.94,0-1.7-.76-1.7-1.7v-3.83h0Z"/>
                <path class="cls-13" d="M49.86,4.82h3.41v3.83c0,.94-.76,1.7-1.7,1.7h0c-.94,0-1.7-.76-1.7-1.7v-3.83h0Z"/>
                <path class="cls-15" d="M46.45,4.82h3.41v3.83c0,.94-.76,1.7-1.7,1.7h0c-.94,0-1.7-.76-1.7-1.7v-3.83h0Z"/>
                <path class="cls-14" d="M43.05,4.82h3.41v3.83c0,.94-.76,1.7-1.7,1.7h0c-.94,0-1.7-.76-1.7-1.7v-3.83h0Z"/>
              </g>
            </g>
            <rect class="cls-11" x="39.64" y="4.82" width="64.75" height="4.69"/>
          </g>
          <rect class="cls-2" x="46.73" y="14.09" width="51.67" height="7.25"/>
          <rect class="cls-12" x="20.11" y="29.05" width="105.01" height="11.14" transform="translate(145.23 69.23) rotate(180)"/>
          <path class="cls-8" d="M22.93,4.1c.81.08.9,1.24.1,1.43-3.5.84-8.1,2.87-10.11,7.7-2.88,6.92-1.28,10.33.8,14.75s6.23,6.5,8.95,7.61c2.18.9,7.04-.78,8.87-1.47.37-.14.8.04.94.42.47,1.26,1.8,3.77,4.9,3.77,3.35,0,7.58-3.03,9.08-4.19.31-.24.75-.19,1,.11,1.12,1.34,4.23,4.59,7.51,4.08s8.72-2.51,10.85-3.33c.42-.16.88.09.97.52.22,1.08,1.06,2.79,4.11,2.86,3.47.08,7.35-2.5,8.92-3.66.35-.26.85-.15,1.07.23.69,1.23,2.5,3.47,6.45,3.43s7.41-1.64,8.86-2.46c.36-.2.8-.05.99.31.43.8,1.7,1.82,5.48.98,4.47-.99,8.84-2.75,10.57-3.49.39-.17.84.04.98.44.48,1.44,2.09,4.24,7.15,3.05,1.4-.33,2.69-1.13,3.76-2.01.81-.66,2.04-.12,2.07.92.03.94.5,1.38,1.99.29,2.58-1.89,7.95,9.74-4.09,10.06-11.91.32-100.65,1.26-102.58,1.28-.02,0-.04,0-.06,0-.98.1-24.52,2.16-22.33-23.8C1.78,4.59,15.58,3.35,22.93,4.1Z"/>
          <circle class="cls-3" cx="15.07" cy="6.74" r="1.25"/>
          <circle class="cls-4" cx="9.78" cy="6.46" r="1.17"/>
          <circle class="cls-5" cx="15.71" cy="8.21" r="1.17"/>
          <circle class="cls-5" cx="23.14" cy="6.74" r="1.17"/>
          <circle class="cls-5" cx="14.47" cy="4.56" r="1.17"/>
          <circle class="cls-4" cx="12.36" cy="6.46" r="2.11"/>
          <circle class="cls-3" cx="15.71" cy="9.83" r="1.25"/>
          <circle class="cls-3" cx="17.96" cy="7.59" r="2.24"/>
          <circle class="cls-3" cx="20.29" cy="8.68" r="1.09"/>
          <circle class="cls-3" cx="26.77" cy="5.91" r="1.09"/>
          <circle class="cls-3" cx="25.68" cy="5.35" r=".78"/>
          <circle class="cls-3" cx="24.71" cy="5.91" r=".78"/>
          <circle class="cls-3" cx="21.19" cy="7.17" r="1.48"/>
          <circle class="cls-3" cx="21.83" cy="6.46" r=".78"/>
          <circle class="cls-3" cx="22.78" cy="8.21" r=".78"/>
          <circle class="cls-3" cx="23.23" cy="6.02" r="1.09"/>
          <circle class="cls-3" cx="24.32" cy="4.27" r=".55"/>
          <circle class="cls-3" cx="27.87" cy="4.82" r=".55"/>
          <circle class="cls-3" cx="27.87" cy="6.46" r=".55"/>
          <circle class="cls-3" cx="28.93" cy="7.98" r=".55"/>
          <circle class="cls-3" cx="29.82" cy="11.9" r=".55"/>
          <circle class="cls-3" cx="25.91" cy="16.07" r=".55"/>
          <circle class="cls-3" cx="22.14" cy="11.18" r="1.09"/>
          <path class="cls-7" d="M12.36,5.13S2.06,9.72,3.1,22.26c1.92-8.07,5.08-13.47,10.73-15.52,0,0-12.48,6.42-7.77,22.31-.4-4.79-1.82-17.2,10.27-21.06-1.86,1.84-8.19,5.25-6.08,19.3.92,6.23,5.38,9.03,5.38,9.03,0,0-9.81-20.16,1.33-26.94,2.52-3.43,2.23-5.03,2.23-5.03l-4.12,1.14-2.72-.36Z"/>
          <g>
            <path class="cls-3" d="M141.67,36.75h-8.33v9.59h-5.58v-17.57c0-5.98,3.16-8.98,9.47-8.98h4.43v5.39h-3.32c-3.34-.05-5,1.07-5,3.36v2.91h8.33v5.31Z"/>
            <path class="cls-3" d="M150.57,22.39c0,.82-.37,1.48-1.11,1.99-.64.43-1.39.65-2.25.65-.79,0-1.46-.23-2.02-.69-.56-.46-.84-1.08-.84-1.87,0-.84.29-1.62.88-2.35.59-.73,1.29-1.09,2.1-1.09.89,0,1.65.34,2.29,1.03.64.69.95,1.46.95,2.33ZM149.92,46.33h-5v-18.49h5v18.49Z"/>
            <path class="cls-3" d="M159.05,46.33h-5v-26.85h5v26.85Z"/>
            <path class="cls-3" d="M181.43,38.27c-.36,2.42-1.48,4.42-3.36,6.01-1.88,1.59-4.05,2.39-6.49,2.39-2.8,0-5.08-.88-6.84-2.63-1.76-1.75-2.63-4.01-2.63-6.78s.95-5.21,2.86-7.01c1.86-1.73,4.25-2.59,7.18-2.59,3.67,0,6.47,1.74,8.4,5.23l-9.51,6.95-2.41-2.71,4.77-3.9c-.46-.54-1.29-.8-2.48-.8s-2.2.48-2.94,1.45c-.64.86-.96,1.92-.96,3.16,0,1.47.41,2.66,1.24,3.56.83.9,1.98,1.35,3.46,1.35,1.07,0,2.04-.34,2.9-1.03.87-.69,1.44-1.57,1.72-2.63h5.08Z"/>
            <path class="cls-3" d="M212.59,46.33h-5.92v-9.59h-5.58v-5.04h5.84v-2.92c0-2.81-1.17-4.22-3.51-4.22-2.62,0-3.93,1.47-3.93,4.42v17.35h-5.84v-18.91c0-5.5,3.26-8.25,9.78-8.25,6.11,0,9.17,2.8,9.17,8.4v18.75Z"/>
            <path class="cls-3" d="M225.77,32.89c-3.36,0-5.04,1.3-5.04,3.9v9.55h-5.31v-18.49h4.43v2.98c1.2-1.99,3.17-2.98,5.92-2.98v5.04Z"/>
            <path class="cls-3" d="M243.99,27.85c-1.4,4.66-3.17,7.23-5.31,7.71,1.96.59,3.31,2.06,4.05,4.43.43,1.5.65,3.62.65,6.34h-5c0-2.67-.22-4.46-.65-5.35-.71-1.38-2.28-2.06-4.7-2.06v7.41h-5v-26.85h5v14.63c1.48,0,2.71-.73,3.7-2.18.41-.56,1.06-1.92,1.95-4.09h5.31Z"/>
          </g>
        </g>
      </g>
    </g>
  </g>
</svg>